# xmcd
#
# Track frame offsets: 
#        150
#        26076
#        41818
#        75571
#        92720
#        116088
#        149020
#        172724
#        213751
#        276513
#
# Disc length: 4132 seconds
#
# Revision: 0
# Processed by: cddbd v1.5.2PL0 Copyright (c) Steve Scherf et al.
# Submitted via: ExactAudioCopyFreeDBPlugin 1.0
#
DISCID=8b10220a
DTITLE=Bob Dylan - Tempest
DYEAR=2012
DGENRE=Blues
TTITLE0=Duquesne Whistle
TTITLE1=Soon After Midnight
TTITLE2=Narrow Way
TTITLE3=Long And Wasted Years
TTITLE4=Pay In Blood
TTITLE5=Scarlet Town
TTITLE6=Early Roman Kings
TTITLE7=Tin Angel
TTITLE8=Tempest
TTITLE9=Roll On John
EXTD=
EXTT0=
EXTT1=
EXTT2=
EXTT3=
EXTT4=
EXTT5=
EXTT6=
EXTT7=
EXTT8=
EXTT9=
PLAYORDER=
